<?xml version="1.0" encoding="UTF-8"?>
<svg xmlns="http://www.w3.org/2000/svg" viewBox="0 0 300 800">
<defs>
<linearGradient id="skin" x1="0" y1="0" x2="0" y2="1">
<stop offset="0%" stop-color="#f3d7c2"/>
<stop offset="100%" stop-color="#eac4ad"/>
</linearGradient>
<style>
.silhouette { fill: url(#skin); stroke: #c8b6a6; stroke-width: 1; }
.accent { fill: #f2eee9; }
</style>
</defs>


<!-- Very simple front silhouette (head, torso, arms, legs) -->
<!-- Head -->
<ellipse class="silhouette" cx="150" cy="60" rx="30" ry="40"/>
<!-- Neck -->
<rect class="silhouette" x="135" y="100" width="30" height="18" rx="6"/>
<!-- Torso -->
<rect class="silhouette" x="105" y="118" width="90" height="200" rx="28"/>
<!-- Pelvis -->
<rect class="silhouette" x="120" y="318" width="60" height="60" rx="18"/>
<!-- Left arm -->
<rect class="silhouette" x="82" y="140" width="24" height="140" rx="12"/>
<rect class="silhouette" x="70" y="280" width="24" height="90" rx="12"/>
<!-- Right arm -->
<rect class="silhouette" x="194" y="140" width="24" height="140" rx="12"/>
<rect class="silhouette" x="206" y="280" width="24" height="90" rx="12"/>
<!-- Left hand -->
<ellipse class="silhouette" cx="82" cy="430" rx="15" ry="18"/>
<!-- Right hand -->
<ellipse class="silhouette" cx="218" cy="430" rx="15" ry="18"/>
<!-- Left leg -->
<rect class="silhouette" x="120" y="378" width="26" height="320" rx="14"/>
<!-- Right leg -->
<rect class="silhouette" x="154" y="378" width="26" height="320" rx="14"/>
<!-- Feet -->
<ellipse class="silhouette" cx="133" cy="760" rx="22" ry="12"/>
<ellipse class="silhouette" cx="167" cy="760" rx="22" ry="12"/>


<!-- Light chest accent -->
<ellipse class="accent" cx="150" cy="200" rx="28" ry="20" opacity="0.35"/>
</svg>